<svg width="173" height="103" viewBox="0 0 173 103" fill="none" xmlns="http://www.w3.org/2000/svg">
<path d="M63.6692 101.987C43.1516 100.194 25.0508 92.5776 13.2538 80.8021C6.54128 74.0896 2.46788 66.8034 0.631988 58.2191C-0.214245 54.3178 -0.207073 47.8348 0.631988 43.8977C3.1922 31.9644 10.9087 21.5227 23.05 13.5624C50.7462 -4.60294 93.1726 -4.50971 120.611 13.7775C124.254 16.2015 126.606 18.1306 129.905 21.3793C134.064 25.4885 136.99 29.5691 140.074 35.5788C140.189 35.7939 140.755 36.0808 141.336 36.1955C143.272 36.5971 145.876 38.1175 147.963 40.0681C149.583 41.5741 150.838 43.2236 153.929 47.9065C157.049 52.6254 171.169 74.4195 172.03 75.8466C172.36 76.406 171.7 77.2952 170.954 77.2952C170.431 77.2952 170.051 76.9366 169.276 75.7175L161.273 63.2965C147.647 42.1981 146.908 41.2227 143.115 39.3223L141.121 38.3183H135.262C129.41 38.3183 129.403 38.3255 129.259 38.9422C128.485 42.3128 128.341 43.1447 128.514 43.3025C128.621 43.4029 131.942 45.2961 135.9 47.5049L143.086 51.5353L142.641 52.4748C142.39 52.9911 142.111 53.4214 142.01 53.4214C141.91 53.4214 135.857 50.0652 128.564 45.9702C121.263 41.8825 114.866 38.4115 114.35 38.2681C112.27 37.6944 109.086 39.9892 109.086 42.0618C109.086 44.1559 109.71 44.7726 122.525 55.2645C130.522 61.8192 135.097 65.7492 135.793 66.6814C137.069 68.3739 138.353 70.8696 139.543 73.939C141.623 79.3463 145.015 82.3583 150.573 83.7495L152.402 84.2085L152.251 85.2125C152.209 85.5972 152.119 85.9752 151.986 86.3384C151.749 86.6038 148.063 85.4277 145.933 84.4021C142.598 82.8029 140.303 80.5224 138.052 76.5566C137.071 76.8514 136.102 77.184 135.147 77.5534C132.343 78.5717 132.207 78.6578 129.553 81.2467C118.251 92.2764 102.044 99.326 82.4656 101.721C79.2886 102.116 67.0469 102.288 63.6692 101.987ZM83.1541 98.5945C92.1327 97.404 99.0962 95.6255 106.39 92.6422C114.042 89.5082 121.256 85.0045 126.305 80.214L128.291 78.3207L123.286 75.9326C117.936 73.3724 117.405 72.9493 116.724 70.6616C116.293 69.2273 116.781 67.6854 118.144 66.2081L119.212 65.0535L116.889 63.2893C115.053 61.8909 114.479 61.2813 114.12 60.349C113.839 59.6239 113.743 58.8398 113.842 58.0682C113.941 57.2966 114.231 56.562 114.687 55.9314L115.39 54.9418L108.053 53.6509C105.254 53.1835 102.466 52.6527 99.6915 52.0588C99.0818 51.8221 98.5367 51.4448 98.1005 50.9575C97.6644 50.4702 97.3494 49.8868 97.1814 49.2548C97.0237 48.595 100.624 31.0393 101.427 28.5292C101.707 27.8834 102.127 27.3071 102.654 26.8411C103.182 26.3751 103.806 26.0309 104.482 25.8328C105.694 25.6105 127.323 29.4113 128.399 30.0424C130.106 31.0321 130.644 32.6385 130.106 35.0983L129.876 36.131H131.074C131.734 36.131 133.297 36.0449 134.538 35.9517L136.804 35.7724L135.678 33.6927C132.279 27.3675 126.14 21.0135 118.552 15.9648C115.01 13.6126 107.458 9.8906 102.911 8.26267C95.848 5.81498 88.525 4.193 81.0887 3.4291C76.9651 2.99881 66.1577 2.99881 62.156 3.43627C52.5534 4.48331 43.8401 6.65626 36.2168 9.90494C18.575 17.4278 6.70622 29.8847 3.67269 44.0913C2.88383 47.799 2.81211 54.2963 3.5436 57.6741C5.15001 65.1324 8.65686 71.5939 14.3653 77.6108C25.9831 89.8525 43.7468 97.3753 65.0389 99.0821C67.886 99.3045 80.2496 98.9746 83.1541 98.5945ZM79.26 85.2269C78.1627 84.9113 77.0511 83.5989 76.8217 82.3583C76.6639 81.5407 76.8503 80.9814 78.0121 78.7295C82.7166 69.6217 84.7605 61.2526 84.7605 51.0835C84.7605 41.2586 82.9533 33.621 78.4567 24.4558C77.4886 22.4909 76.6997 20.6621 76.6997 20.404C76.6997 19.4286 77.5173 18.0159 78.3994 17.4637C79.6114 16.6963 81.6409 16.8397 82.6162 17.7505C82.9891 18.1091 83.9573 19.694 84.7676 21.2932C87.9876 27.6041 90.1893 34.5389 91.2793 41.7534C91.9534 46.2213 92.0897 54.6836 91.5518 58.7713C90.6478 66.0151 88.5645 73.0622 85.3844 79.6331C83.4481 83.6133 82.2433 85.2555 81.2249 85.2555C80.98 85.2617 80.7368 85.2978 80.5006 85.3631C80.0821 85.4046 79.6595 85.3582 79.26 85.2269ZM66.1648 78.3781C64.4867 77.8833 63.2676 75.8179 63.7552 74.2689C63.8772 73.8959 64.666 72.1676 65.5194 70.4321C69.0732 63.3323 70.5852 55.385 69.8868 47.4763C69.2844 41.1223 68.1442 37.1135 65.2756 31.2472C63.3465 27.3101 63.2604 26.7005 64.3792 25.1228C65.4405 23.6168 68.1011 23.3658 69.4924 24.6495C70.4606 25.5387 73.4726 31.8209 74.6272 35.378C78.4688 47.1716 77.8772 59.9614 72.9634 71.3501C70.439 77.2737 68.6677 79.1024 66.1648 78.3781ZM52.6682 71.429C52.1309 71.1683 51.6573 70.793 51.2807 70.3297C50.904 69.8663 50.6335 69.326 50.488 68.7468C50.3374 68.0727 50.5884 67.3269 51.8291 64.824C56.3615 55.6446 56.4117 46.795 51.9725 37.8235C50.0291 33.8792 49.986 33.0975 51.6355 31.5413C52.4458 30.7739 52.7901 30.6377 53.9303 30.6377C55.8451 30.6377 56.8419 31.6058 58.5488 35.1198C61.1807 40.5271 62.2636 45.2172 62.2492 51.2269C62.2492 57.3944 61.2381 61.6399 58.4268 67.3412C56.8133 70.6042 56.0172 71.4648 54.4108 71.6871C53.8177 71.7401 53.2205 71.6516 52.6682 71.429ZM40.0679 64.9603C39.0936 64.4446 38.358 63.5702 38.0168 62.522C37.7085 61.4319 37.9595 60.5642 39.2001 58.5275C40.7922 55.9099 41.1651 54.5115 41.1651 51.0835C41.1651 47.6627 40.7922 46.2571 39.2001 43.6395C38.7282 42.891 38.325 42.1013 37.9953 41.2801C37.4862 39.559 38.9205 37.4434 40.8496 37.0776C42.4847 36.7693 43.6106 37.5079 45.1166 39.853C47.2502 43.2406 48.3824 47.1625 48.3824 51.166C48.3824 55.1695 47.2502 59.0914 45.1166 62.479C43.5747 64.8599 41.8608 65.7061 40.0679 64.9603ZM133.942 75.5239C135.398 75.0003 136.66 74.5127 136.739 74.4266C136.825 74.3477 136.546 73.4155 136.115 72.3541C135.24 70.1883 135.384 70.2385 132.286 70.8337C128.93 71.4792 126.986 70.9054 123.321 68.209C122.317 67.4703 121.292 66.8679 121.027 66.8679C120.768 66.8679 120.202 67.248 119.757 67.7213C118.825 68.7253 118.682 70.303 119.442 71.2353C120.109 72.0457 129.317 76.4275 130.414 76.449C130.895 76.4633 132.487 76.0474 133.942 75.5239ZM132.494 68.4743C133.856 68.2018 134.007 68.1086 133.77 67.6711C133.512 67.1834 120.776 56.6127 119.671 55.9673C118.76 55.4366 118.022 55.5585 117.269 56.3689C115.053 58.7355 115.311 59.2375 121.041 63.6336C127.954 68.9261 128.686 69.2417 132.494 68.4743ZM115.397 52.4748C115.397 52.4031 113.956 51.1624 112.184 49.7138C107.824 46.1208 106.892 44.7798 106.892 42.1263C106.892 39.9032 108.369 37.7661 110.75 36.5326C112.157 35.9013 113.734 35.7574 115.232 36.1238C116.078 36.3963 119.879 38.4545 125.15 41.4881L126.262 42.1263L127.18 37.7804C128.112 33.3341 128.134 32.1723 127.266 31.8998C123.507 31.1805 119.742 30.4968 115.971 29.8488C105.407 27.9842 104.253 27.8766 103.765 28.6727C103.5 29.103 99.4835 47.7201 99.4835 48.5161C99.4835 48.9106 99.6843 49.4054 99.9281 49.6062C100.172 49.8142 103.6 50.5528 107.544 51.2556C115.16 52.6254 115.397 52.6612 115.397 52.4748Z" fill="#003746"></path>
</svg>